<svg width="139" height="18" viewBox="0 0 139 18" fill="none" xmlns="http://www.w3.org/2000/svg">
<g clip-path="url(#clip0_406_259)">
<path d="M0 0.191406H3.5669L6.86139 7.03258L10.1389 0.191406H13.7058L8.5214 10.3023V17.9902H5.20138V10.3023L0 0.191406Z" fill="black"/>
<path d="M22.7012 3.01874C21.2455 3.01874 20.0537 3.52176 19.0832 4.51943C18.1383 5.53387 17.6531 7.00942 17.6531 8.99638C17.6531 10.9833 18.1383 12.4589 19.0832 13.4733C20.0537 14.4794 21.254 14.9824 22.7012 14.9824C24.1484 14.9824 25.3572 14.4794 26.3021 13.4733C27.2726 12.4673 27.7579 10.9833 27.7579 8.99638C27.7579 7.00942 27.2726 5.53387 26.3021 4.51943C25.3572 3.51338 24.1569 3.01874 22.7012 3.01874ZM22.7012 0.000571291C25.7914 0.000571291 28.3708 1.18269 29.9201 3.9661C30.7118 5.34943 31.1204 7.03457 31.1204 8.99638C31.1204 12.92 29.3583 15.7873 26.881 17.07C25.6296 17.6904 24.2591 18.0006 22.6927 18.0006C19.611 18.0006 17.0572 16.8185 15.4482 14.0267C14.6565 12.6433 14.2734 10.9582 14.2734 8.99638C14.2734 5.07276 16.0356 2.18036 18.5129 0.94794C19.7643 0.327539 21.1433 -0.0078125 22.7012 -0.0078125" fill="black"/>
<path d="M46.6 0.195312V11.111C46.6 15.655 44.0291 17.9941 39.9429 17.9941C35.8567 17.9941 33.2773 15.655 33.2773 11.111V0.195312H36.5974V11.1529C36.5974 13.6932 37.7211 14.9759 39.9429 14.9759C42.1648 14.9759 43.2885 13.6932 43.2885 11.1529V0.195312H46.6085H46.6Z" fill="black"/>
<path d="M61.8455 4.52135L59.9556 10.6331H63.7268L61.8455 4.52135ZM65.9828 17.7929L64.6803 13.6429H59.0107L57.7082 17.7929H54.1328L60.194 0.195312H63.514L69.5582 17.7929H65.9913H65.9828Z" fill="black"/>
<path d="M82.1162 0.195312H85.4277V17.7929H81.9375L75.374 6.18134V17.7929H72.0625V0.195312H75.5613L82.1162 11.8152V0.195312Z" fill="black"/>
<path d="M92.6091 14.7792H93.8349C95.3928 14.7792 96.6697 14.4522 97.8701 13.6474C99.0959 12.8426 99.8365 11.2329 99.8365 8.99439C99.8365 6.75592 99.0959 5.14623 97.8701 4.34138C96.6697 3.54492 95.3928 3.20957 93.8349 3.20957H92.6091V14.7708V14.7792ZM89.2891 17.789V0.191406H94.882C99.0959 0.191406 103.199 2.85745 103.199 8.99439C103.199 15.1313 99.0959 17.789 94.882 17.789H89.2891Z" fill="black"/>
<path d="M124.772 0.195312V11.111C124.772 15.655 122.192 17.9941 118.106 17.9941C114.02 17.9941 111.449 15.655 111.449 11.111V0.195312H114.769V11.1529C114.769 13.6932 115.893 14.9759 118.106 14.9759C120.32 14.9759 121.452 13.6932 121.452 11.1529V0.195312H124.772Z" fill="black"/>
<path d="M135.61 4.87098C134.972 3.63857 134.129 3.01816 133.142 3.01816C132.154 3.01816 131.431 3.69725 131.431 4.62785C131.431 5.73451 132.656 6.56451 134.112 7.23521C136.257 8.16581 139.084 9.47368 139.058 12.517C139.058 15.9376 136.819 18 133.346 18C131.788 18 130.435 17.5221 129.311 16.5915C128.187 15.6358 127.472 14.4537 127.191 13.0787L129.873 11.4187C130.562 13.8081 131.737 14.9902 133.423 14.9902C134.98 14.9902 135.747 14.2357 135.747 12.7014C135.747 11.6702 134.606 10.8654 133.091 10.2366C130.971 9.35631 128.221 8.02329 128.264 4.78715C128.264 3.45412 128.723 2.32231 129.643 1.39171C130.588 0.452725 131.737 0 133.142 0C135.559 0 137.27 1.05636 138.292 3.19422L135.61 4.87937V4.87098Z" fill="black"/>
</g>
<defs>
<clipPath id="clip0_406_259">
<rect width="139" height="18" fill="white"/>
</clipPath>
</defs>
</svg>
